<?xml version="1.0" standalone="no"?>
<!DOCTYPE svg PUBLIC "-//W3C//DTD SVG 20010904//EN"
 "http://www.w3.org/TR/2001/REC-SVG-20010904/DTD/svg10.dtd">
<svg version="1.0" xmlns="http://www.w3.org/2000/svg"
 width="500.000000pt" height="500.000000pt" viewBox="0 0 500.000000 500.000000"
 preserveAspectRatio="xMidYMid meet">
<metadata>
Created by potrace 1.16, written by Peter Selinger 2001-2019
</metadata>
<g transform="translate(0.000000,500.000000) scale(0.100000,-0.100000)"
fill="#000000" stroke="none">
<path d="M0 2500 l0 -2500 2500 0 2500 0 0 2500 0 2500 -2500 0 -2500 0 0
-2500z m4662 2163 c104 -104 138 -144 138 -163 0 -36 -274 -310 -310 -310 -16
0 -41 17 -72 47 l-48 48 -210 -210 -210 -209 -40 39 -40 39 120 121 c68 68
117 125 113 130 -5 6 -4 7 1 2 12 -9 87 63 79 76 -3 6 -2 7 4 4 5 -3 31 15 56
41 l47 48 -38 37 c-21 21 -42 34 -47 30 -4 -5 -5 -3 -1 4 3 6 2 14 -4 18 -15
9 -12 61 5 75 8 7 12 17 8 23 -3 5 -1 7 4 4 11 -7 31 10 32 28 1 6 7 10 14 10
6 1 11 7 9 14 -1 7 2 10 6 7 11 -7 44 28 37 37 -3 4 -2 5 2 2 10 -8 63 47 56
58 -3 6 -1 7 4 4 11 -7 50 30 46 42 -2 3 3 6 10 6 6 0 13 6 13 13 1 6 2 13 3
15 0 2 18 4 38 5 35 3 43 -4 175 -135z m-302 33 c0 -2 -8 -10 -17 -17 -16 -13
-17 -12 -4 4 13 16 21 21 21 13z m-1890 -717 c0 -3 39 -9 88 -12 48 -3 123
-13 167 -23 44 -10 90 -18 102 -18 12 -1 19 -3 17 -5 -2 -2 22 -13 54 -23 31
-11 90 -35 131 -54 40 -18 78 -31 85 -27 6 3 8 2 3 -2 -9 -10 104 -76 117 -68
5 4 6 1 2 -5 -4 -7 -3 -12 2 -12 5 0 30 -16 56 -35 25 -20 46 -34 46 -32 0 2
28 -22 63 -54 34 -32 64 -59 67 -59 3 0 75 69 159 154 l154 155 38 -42 38 -42
-155 -156 -155 -155 29 -37 c16 -20 33 -33 37 -29 5 4 5 2 2 -4 -4 -7 6 -26
22 -43 16 -17 26 -31 23 -31 -4 0 2 -7 12 -15 11 -8 16 -15 10 -15 -5 0 0 -7
11 -16 11 -8 19 -17 17 -20 -2 -3 16 -44 41 -92 24 -48 52 -108 62 -134 10
-27 21 -48 26 -48 5 0 6 -7 3 -15 -4 -8 -2 -15 2 -15 5 0 10 -13 11 -28 1 -15
7 -41 14 -57 6 -17 13 -45 15 -63 2 -18 6 -37 10 -43 4 -6 9 -39 11 -73 2 -33
8 -65 12 -69 5 -5 7 -39 4 -75 -3 -49 -2 -63 6 -52 9 12 11 11 11 -7 0 -12 -4
-25 -10 -28 -5 -3 -10 -37 -10 -74 0 -247 -121 -583 -290 -806 -27 -36 -48
-65 -46 -65 7 0 -246 -244 -254 -246 -3 -1 -43 -26 -90 -56 -47 -31 -110 -68
-140 -83 -30 -15 -57 -32 -58 -36 -2 -5 -8 -7 -13 -3 -5 3 -9 1 -9 -3 0 -5 -8
-9 -17 -10 -19 0 -114 -34 -123 -43 -3 -3 -16 -6 -30 -8 -13 -1 -27 -6 -30
-10 -3 -4 -20 -8 -39 -9 -18 -1 -39 -7 -46 -13 -6 -5 -15 -7 -18 -4 -3 4 -14
3 -24 -1 -10 -5 -26 -7 -37 -6 -11 2 -16 -2 -11 -9 5 -8 -9 -9 -54 -4 -43 5
-61 3 -61 -5 0 -8 -17 -10 -52 -6 -29 3 -102 8 -163 11 -126 6 -153 9 -177 19
-10 4 -25 5 -33 1 -8 -3 -15 -2 -15 2 0 11 -89 34 -101 27 -5 -4 -9 -2 -9 3 0
9 -81 37 -105 37 -5 0 -16 6 -24 13 -7 7 -20 11 -27 8 -8 -3 -14 -2 -14 3 0 9
-100 57 -112 53 -4 -1 -8 2 -8 8 0 8 -76 53 -90 53 -3 0 -9 5 -15 12 -10 12
-130 105 -154 119 -9 6 -57 -36 -167 -145 l-154 -153 -40 39 -40 39 150 151
c82 83 150 155 150 162 0 6 -19 28 -42 49 -24 20 -37 33 -30 29 8 -4 -8 20
-34 54 -26 33 -52 61 -57 61 -6 0 -8 3 -4 6 3 3 -13 36 -35 72 -23 37 -57 101
-76 142 -19 41 -37 77 -41 80 -3 3 -6 11 -7 18 -3 39 -5 43 -16 36 -7 -4 -8
-3 -4 4 10 16 -4 63 -17 55 -5 -3 -7 -1 -4 5 9 13 -27 165 -36 156 -3 -4 -3
11 0 31 4 25 3 36 -4 32 -6 -4 -8 11 -5 43 2 28 1 50 -4 50 -5 0 -9 65 -9 145
0 80 4 145 9 145 4 0 6 18 4 39 -2 22 0 37 4 35 5 -3 8 5 8 18 0 13 11 66 24
118 14 52 22 98 20 102 -3 5 0 8 6 8 7 0 10 7 6 15 -3 8 -2 15 3 15 12 0 42
81 34 94 -3 6 -3 8 2 4 8 -7 67 106 68 130 0 6 2 10 5 7 4 -4 93 128 93 139 1
2 23 28 50 58 27 29 49 56 49 60 0 19 204 195 287 248 23 15 39 30 35 34 -4 4
-2 6 3 5 19 -6 55 12 49 24 -4 7 -4 9 1 5 4 -4 37 8 74 26 36 18 107 49 156
67 50 19 91 37 93 40 2 4 12 4 24 1 13 -3 19 -1 15 5 -5 7 0 9 13 6 11 -3 20
-1 20 4 0 6 12 8 26 5 18 -3 25 -1 20 6 -4 6 1 8 14 5 11 -3 28 -2 37 2 10 5
28 7 40 6 13 -1 28 1 35 6 7 4 39 6 71 4 31 -1 57 1 57 6 0 4 25 8 55 8 30 0
55 -3 55 -6z m2017 -1391 c-3 -8 -6 -5 -6 6 -1 11 2 17 5 13 3 -3 4 -12 1 -19z
m-4010 -60 c-3 -8 -6 -5 -6 6 -1 11 2 17 5 13 3 -3 4 -12 1 -19z m396 -1741
l-152 -152 44 -46 c24 -26 46 -45 48 -42 3 2 2 -11 0 -29 -3 -18 -5 -38 -6
-45 0 -7 -3 -10 -7 -8 -3 2 -67 -57 -141 -131 -99 -99 -140 -134 -158 -134
-34 0 -287 251 -300 298 -6 20 -6 30 0 27 5 -4 10 -1 10 4 1 6 2 16 3 21 0 6
5 9 10 9 4 -1 65 55 135 124 154 154 154 153 232 80 l50 -47 152 152 152 152
40 -40 40 -40 -152 -153z"/>
<path d="M2318 3143 c-16 -2 -28 -7 -28 -11 0 -4 -17 -8 -37 -9 -21 -1 -39 -7
-41 -13 -2 -5 -8 -8 -13 -4 -13 7 -119 -42 -119 -56 0 -6 -5 -8 -10 -5 -6 3
-13 -1 -16 -9 -3 -9 -10 -13 -15 -10 -5 3 -12 -2 -15 -10 -3 -9 -10 -14 -14
-11 -4 3 -22 -11 -39 -30 -17 -20 -31 -33 -31 -30 0 4 -20 -17 -44 -45 -53
-62 -110 -166 -100 -182 5 -7 3 -8 -6 -3 -10 6 -12 3 -8 -13 4 -14 2 -20 -5
-15 -6 4 -8 -2 -5 -15 4 -12 3 -20 -2 -17 -15 9 -31 -121 -27 -215 5 -102 24
-193 38 -184 5 3 6 -2 3 -10 -3 -9 -1 -16 6 -16 6 0 8 -4 5 -10 -9 -14 52
-124 96 -173 l38 -42 478 478 478 478 -34 29 c-19 16 -38 27 -42 25 -4 -3 -10
2 -13 11 -3 8 -10 12 -16 9 -5 -3 -10 -2 -10 4 0 6 -13 17 -30 26 -16 9 -30
13 -30 10 0 -4 -7 1 -16 9 -20 20 -112 47 -142 41 -12 -2 -20 0 -17 4 10 17
-136 26 -217 14z"/>
<path d="M2482 2397 l-473 -473 73 -42 c40 -23 84 -43 98 -44 14 -2 28 -7 31
-11 3 -4 17 -9 30 -11 13 -2 32 -7 42 -11 9 -4 28 -5 42 -3 14 3 22 1 19 -4
-13 -20 198 0 273 25 214 73 383 241 444 440 12 37 18 74 15 83 -3 9 -2 12 4
9 7 -4 9 13 7 50 -3 33 -1 51 4 43 6 -9 9 -4 9 15 0 15 -3 27 -8 27 -4 0 -8
30 -8 67 -1 39 -5 68 -12 71 -6 2 -9 9 -6 16 9 24 -85 226 -106 226 -3 0 -218
-213 -478 -473z"/>
</g>
</svg>
